<svg width="21" height="20" viewBox="0 0 21 20" fill="none" xmlns="http://www.w3.org/2000/svg">
<path d="M15.7326 3.30061C18.134 6.55911 15.6268 12.4 10.7589 10.7789C10.4414 10.673 8.08886 13.2879 7.88535 13.5568M7.16901 7.70774C5.8747 3.92787 9.08197 0.791553 12.4032 1.29662M4.24665 18.8844C4.24665 18.8844 2.1953 19.5198 1.63362 18.8844C1.00682 18.1757 1.52779 15.8214 1.70688 15.4548C1.88597 15.0883 5.59793 9.67099 7.16087 7.70774M7.47834 13.5568L7.5923 15.1779L5.76074 15.3734L6.47708 17.1493L4.5397 17.2878L4.64552 18.8437M8.69938 9.75245C9.2692 10.2086 9.98554 10.5345 10.7345 10.7707M16.221 5.57342C16.9943 5.31274 17.6293 5.00318 18.134 4.66918C21.1621 2.6489 19.3957 -0.25117 15.5209 1.24774C11.752 2.70593 12.102 5.02762 13.6487 5.31273M13.8766 5.31273C13.8766 5.99659 13.3336 6.55097 12.6637 6.55097C11.9938 6.55097 11.4508 5.99659 11.4508 5.31273C11.4508 4.62888 11.9938 4.0745 12.6637 4.0745C13.3336 4.0745 13.8766 4.62888 13.8766 5.31273Z" stroke="#121212" stroke-width="1.5" stroke-linecap="round" stroke-linejoin="round"/>
</svg>
